<mxfile host="app.diagrams.net" modified="2024-06-29T09:26:38.701Z" agent="Mozilla/5.0 (Windows NT 10.0; Win64; x64) AppleWebKit/537.36 (KHTML, like Gecko) Chrome/126.0.0.0 Safari/537.36" etag="IaJa3wQ3d2Ta-qQTPPq3" version="24.6.4" type="device">
  <diagram name="Page-1" id="KjKMDN3EQQzVOFIK240n">
    <mxGraphModel dx="1235" dy="614" grid="1" gridSize="10" guides="1" tooltips="1" connect="1" arrows="1" fold="1" page="1" pageScale="1" pageWidth="827" pageHeight="1169" math="0" shadow="0">
      <root>
        <mxCell id="0" />
        <mxCell id="1" parent="0" />
        <mxCell id="FS8Y-MYKUwUddtfPlZQN-15" style="edgeStyle=orthogonalEdgeStyle;rounded=0;orthogonalLoop=1;jettySize=auto;html=1;entryX=0;entryY=0.5;entryDx=0;entryDy=0;" edge="1" parent="1" source="FS8Y-MYKUwUddtfPlZQN-1" target="FS8Y-MYKUwUddtfPlZQN-3">
          <mxGeometry relative="1" as="geometry" />
        </mxCell>
        <mxCell id="FS8Y-MYKUwUddtfPlZQN-1" value="&lt;span&gt;Power On&lt;/span&gt;" style="ellipse;whiteSpace=wrap;html=1;fillColor=#bac8d3;strokeColor=#23445d;fontStyle=1" vertex="1" parent="1">
          <mxGeometry x="180" y="100" width="120" height="80" as="geometry" />
        </mxCell>
        <mxCell id="FS8Y-MYKUwUddtfPlZQN-16" value="" style="edgeStyle=orthogonalEdgeStyle;rounded=0;orthogonalLoop=1;jettySize=auto;html=1;" edge="1" parent="1" source="FS8Y-MYKUwUddtfPlZQN-3" target="FS8Y-MYKUwUddtfPlZQN-4">
          <mxGeometry relative="1" as="geometry" />
        </mxCell>
        <mxCell id="FS8Y-MYKUwUddtfPlZQN-3" value="Waiting to Wake Up" style="rounded=0;whiteSpace=wrap;html=1;fillColor=#bac8d3;strokeColor=#23445d;fontStyle=1" vertex="1" parent="1">
          <mxGeometry x="354" y="110" width="120" height="60" as="geometry" />
        </mxCell>
        <mxCell id="FS8Y-MYKUwUddtfPlZQN-17" value="" style="edgeStyle=orthogonalEdgeStyle;rounded=0;orthogonalLoop=1;jettySize=auto;html=1;" edge="1" parent="1" source="FS8Y-MYKUwUddtfPlZQN-4" target="FS8Y-MYKUwUddtfPlZQN-6">
          <mxGeometry relative="1" as="geometry" />
        </mxCell>
        <mxCell id="FS8Y-MYKUwUddtfPlZQN-4" value="Welcome Voice&amp;nbsp;&lt;br&gt;to User" style="rounded=0;whiteSpace=wrap;html=1;fillColor=#bac8d3;strokeColor=#23445d;fontStyle=1" vertex="1" parent="1">
          <mxGeometry x="510" y="110" width="120" height="60" as="geometry" />
        </mxCell>
        <mxCell id="FS8Y-MYKUwUddtfPlZQN-8" style="edgeStyle=orthogonalEdgeStyle;rounded=0;orthogonalLoop=1;jettySize=auto;html=1;exitX=1;exitY=0.5;exitDx=0;exitDy=0;entryX=0.5;entryY=0;entryDx=0;entryDy=0;strokeWidth=3;strokeColor=#FF0000;fontStyle=1" edge="1" parent="1" source="FS8Y-MYKUwUddtfPlZQN-6" target="FS8Y-MYKUwUddtfPlZQN-7">
          <mxGeometry relative="1" as="geometry" />
        </mxCell>
        <mxCell id="FS8Y-MYKUwUddtfPlZQN-11" style="edgeStyle=orthogonalEdgeStyle;rounded=0;orthogonalLoop=1;jettySize=auto;html=1;entryX=0.5;entryY=0;entryDx=0;entryDy=0;strokeColor=#23445d;strokeWidth=3;fontStyle=1;fillColor=#bac8d3;" edge="1" parent="1" source="FS8Y-MYKUwUddtfPlZQN-6" target="FS8Y-MYKUwUddtfPlZQN-10">
          <mxGeometry relative="1" as="geometry" />
        </mxCell>
        <mxCell id="FS8Y-MYKUwUddtfPlZQN-6" value="&lt;div&gt;Network&lt;/div&gt;Connection processt" style="rounded=0;whiteSpace=wrap;html=1;fillColor=#bac8d3;strokeColor=#23445d;fontStyle=1" vertex="1" parent="1">
          <mxGeometry x="680" y="90" width="120" height="100" as="geometry" />
        </mxCell>
        <mxCell id="FS8Y-MYKUwUddtfPlZQN-7" value="&lt;div&gt;Network&lt;/div&gt;Connection processt" style="rounded=0;whiteSpace=wrap;html=1;fillColor=#bac8d3;strokeColor=#23445d;fontStyle=1" vertex="1" parent="1">
          <mxGeometry x="840" y="230" width="120" height="100" as="geometry" />
        </mxCell>
        <mxCell id="FS8Y-MYKUwUddtfPlZQN-9" value="&lt;font color=&quot;#ff0000&quot;&gt;&lt;span&gt;Failed&lt;/span&gt;&lt;/font&gt;" style="text;html=1;align=center;verticalAlign=middle;resizable=0;points=[];autosize=1;strokeColor=none;fillColor=none;fontStyle=1" vertex="1" parent="1">
          <mxGeometry x="840" y="98" width="60" height="30" as="geometry" />
        </mxCell>
        <mxCell id="FS8Y-MYKUwUddtfPlZQN-14" style="edgeStyle=orthogonalEdgeStyle;rounded=0;orthogonalLoop=1;jettySize=auto;html=1;" edge="1" parent="1" source="FS8Y-MYKUwUddtfPlZQN-10" target="FS8Y-MYKUwUddtfPlZQN-13">
          <mxGeometry relative="1" as="geometry" />
        </mxCell>
        <mxCell id="FS8Y-MYKUwUddtfPlZQN-10" value="Face detection process" style="rounded=0;whiteSpace=wrap;html=1;fillColor=#bac8d3;strokeColor=#23445d;fontStyle=1" vertex="1" parent="1">
          <mxGeometry x="650" y="450" width="180" height="60" as="geometry" />
        </mxCell>
        <mxCell id="FS8Y-MYKUwUddtfPlZQN-12" value="&lt;font color=&quot;#00cc00&quot;&gt;&lt;span&gt;Success&lt;/span&gt;&lt;/font&gt;" style="text;html=1;align=center;verticalAlign=middle;resizable=0;points=[];autosize=1;strokeColor=none;fillColor=none;fontStyle=1" vertex="1" parent="1">
          <mxGeometry x="745" y="208" width="70" height="30" as="geometry" />
        </mxCell>
        <mxCell id="FS8Y-MYKUwUddtfPlZQN-20" style="edgeStyle=orthogonalEdgeStyle;rounded=0;orthogonalLoop=1;jettySize=auto;html=1;entryX=1;entryY=0.5;entryDx=0;entryDy=0;" edge="1" parent="1" source="FS8Y-MYKUwUddtfPlZQN-13" target="FS8Y-MYKUwUddtfPlZQN-18">
          <mxGeometry relative="1" as="geometry">
            <mxPoint x="320" y="410" as="targetPoint" />
            <Array as="points">
              <mxPoint x="350" y="480" />
              <mxPoint x="350" y="400" />
            </Array>
          </mxGeometry>
        </mxCell>
        <mxCell id="FS8Y-MYKUwUddtfPlZQN-21" style="edgeStyle=orthogonalEdgeStyle;rounded=0;orthogonalLoop=1;jettySize=auto;html=1;entryX=1;entryY=0.5;entryDx=0;entryDy=0;" edge="1" parent="1" source="FS8Y-MYKUwUddtfPlZQN-13" target="FS8Y-MYKUwUddtfPlZQN-19">
          <mxGeometry relative="1" as="geometry">
            <Array as="points">
              <mxPoint x="350" y="480" />
              <mxPoint x="350" y="510" />
            </Array>
          </mxGeometry>
        </mxCell>
        <mxCell id="FS8Y-MYKUwUddtfPlZQN-13" value="Face Recognition process" style="rounded=0;whiteSpace=wrap;html=1;fillColor=#bac8d3;strokeColor=#23445d;fontStyle=1" vertex="1" parent="1">
          <mxGeometry x="420" y="450" width="180" height="60" as="geometry" />
        </mxCell>
        <mxCell id="FS8Y-MYKUwUddtfPlZQN-26" style="edgeStyle=orthogonalEdgeStyle;rounded=0;orthogonalLoop=1;jettySize=auto;html=1;entryX=0.5;entryY=1;entryDx=0;entryDy=0;" edge="1" parent="1" source="FS8Y-MYKUwUddtfPlZQN-18" target="FS8Y-MYKUwUddtfPlZQN-25">
          <mxGeometry relative="1" as="geometry" />
        </mxCell>
        <mxCell id="FS8Y-MYKUwUddtfPlZQN-18" value="Face Matched" style="rounded=1;whiteSpace=wrap;html=1;fillColor=#bac8d3;strokeColor=#23445d;" vertex="1" parent="1">
          <mxGeometry x="200" y="370" width="120" height="60" as="geometry" />
        </mxCell>
        <mxCell id="FS8Y-MYKUwUddtfPlZQN-19" value="Face Not Matched" style="rounded=1;whiteSpace=wrap;html=1;fillColor=#bac8d3;strokeColor=#23445d;" vertex="1" parent="1">
          <mxGeometry x="200" y="480" width="120" height="60" as="geometry" />
        </mxCell>
        <mxCell id="FS8Y-MYKUwUddtfPlZQN-28" style="edgeStyle=orthogonalEdgeStyle;rounded=0;orthogonalLoop=1;jettySize=auto;html=1;entryX=0;entryY=0.5;entryDx=0;entryDy=0;" edge="1" parent="1" source="FS8Y-MYKUwUddtfPlZQN-25" target="FS8Y-MYKUwUddtfPlZQN-27">
          <mxGeometry relative="1" as="geometry" />
        </mxCell>
        <mxCell id="FS8Y-MYKUwUddtfPlZQN-25" value="Welcome Vocie" style="rounded=0;whiteSpace=wrap;html=1;fillColor=#bac8d3;strokeColor=#23445d;" vertex="1" parent="1">
          <mxGeometry x="200" y="238" width="120" height="60" as="geometry" />
        </mxCell>
        <mxCell id="FS8Y-MYKUwUddtfPlZQN-30" style="edgeStyle=orthogonalEdgeStyle;rounded=0;orthogonalLoop=1;jettySize=auto;html=1;" edge="1" parent="1" source="FS8Y-MYKUwUddtfPlZQN-27" target="FS8Y-MYKUwUddtfPlZQN-29">
          <mxGeometry relative="1" as="geometry" />
        </mxCell>
        <mxCell id="FS8Y-MYKUwUddtfPlZQN-27" value="Log Create" style="rounded=0;whiteSpace=wrap;html=1;fillColor=#bac8d3;strokeColor=#23445d;" vertex="1" parent="1">
          <mxGeometry x="354" y="238" width="120" height="60" as="geometry" />
        </mxCell>
        <mxCell id="FS8Y-MYKUwUddtfPlZQN-33" style="edgeStyle=orthogonalEdgeStyle;rounded=0;orthogonalLoop=1;jettySize=auto;html=1;entryX=0.5;entryY=0;entryDx=0;entryDy=0;" edge="1" parent="1" source="FS8Y-MYKUwUddtfPlZQN-29" target="FS8Y-MYKUwUddtfPlZQN-31">
          <mxGeometry relative="1" as="geometry" />
        </mxCell>
        <mxCell id="FS8Y-MYKUwUddtfPlZQN-29" value="Store In flash" style="rounded=0;whiteSpace=wrap;html=1;fillColor=#bac8d3;strokeColor=#23445d;" vertex="1" parent="1">
          <mxGeometry x="510" y="238" width="120" height="60" as="geometry" />
        </mxCell>
        <mxCell id="FS8Y-MYKUwUddtfPlZQN-31" value="Sending Event data &amp;amp; Log to Server" style="ellipse;whiteSpace=wrap;html=1;fillColor=#fad7ac;strokeColor=#b46504;" vertex="1" parent="1">
          <mxGeometry x="510" y="330" width="120" height="80" as="geometry" />
        </mxCell>
        <mxCell id="FS8Y-MYKUwUddtfPlZQN-34" value="Failed Text and Voice" style="ellipse;whiteSpace=wrap;html=1;fillColor=#fad7ac;strokeColor=#b46504;" vertex="1" parent="1">
          <mxGeometry x="340" y="544" width="120" height="80" as="geometry" />
        </mxCell>
        <mxCell id="FS8Y-MYKUwUddtfPlZQN-35" value="" style="endArrow=classic;html=1;rounded=0;exitX=0.5;exitY=1;exitDx=0;exitDy=0;" edge="1" parent="1" source="FS8Y-MYKUwUddtfPlZQN-19" target="FS8Y-MYKUwUddtfPlZQN-34">
          <mxGeometry width="50" height="50" relative="1" as="geometry">
            <mxPoint x="450" y="540" as="sourcePoint" />
            <mxPoint x="500" y="490" as="targetPoint" />
            <Array as="points">
              <mxPoint x="260" y="584" />
            </Array>
          </mxGeometry>
        </mxCell>
        <mxCell id="FS8Y-MYKUwUddtfPlZQN-36" value="" style="endArrow=classic;html=1;rounded=0;exitX=1;exitY=0.5;exitDx=0;exitDy=0;entryX=0.5;entryY=1;entryDx=0;entryDy=0;" edge="1" parent="1" source="FS8Y-MYKUwUddtfPlZQN-34" target="FS8Y-MYKUwUddtfPlZQN-10">
          <mxGeometry width="50" height="50" relative="1" as="geometry">
            <mxPoint x="450" y="540" as="sourcePoint" />
            <mxPoint x="500" y="490" as="targetPoint" />
            <Array as="points">
              <mxPoint x="740" y="584" />
            </Array>
          </mxGeometry>
        </mxCell>
      </root>
    </mxGraphModel>
  </diagram>
</mxfile>
